<svg width="48" height="40" viewBox="0 0 48 40" fill="none" xmlns="http://www.w3.org/2000/svg">
<path d="M47.2931 9.11133L45.462 15.9367H29.2344L31.0655 9.11133H47.2931Z" fill="#FDA509"/>
<path d="M18.0272 24.0321L16.2276 30.794H0L1.83113 24.0004L18.0272 24.0321Z" fill="#63C1A0"/>
<path d="M36.2748 15.9365H29.2344L33.4965 0H40.5053L36.2748 15.9365Z" fill="#89D3DF"/>
<path d="M13.8013 40H6.79248L11.023 24.0317H18.0318L13.8013 40Z" fill="#E01A59"/>
<path d="M22.0057 9.11133L20.1746 15.9367H3.97852L5.77808 9.11133H22.0057Z" fill="#FDA509"/>
<path d="M20.1709 15.9365H13.1621L17.4242 0H24.4646L20.1709 15.9365Z" fill="#E01A59"/>
<path d="M29.833 40H22.8242L27.0548 24.0317H34.0952L29.833 40Z" fill="#89D3DF"/>
<path d="M43.3221 24.0315L41.5225 30.7934H25.2949L27.0629 23.9998L43.3221 24.0315Z" fill="#63C1A0"/>
<path d="M32.2701 30.7939H9.22314L15.0007 9.11133H38.0793L32.2701 30.7939Z" fill="#331433"/>
<path d="M20.3659 19.062V19.0452C20.3659 18.7429 20.313 18.4686 20.2073 18.2223C20.1071 17.9704 19.9595 17.7549 19.7647 17.5758C19.5754 17.3966 19.3416 17.2595 19.0633 17.1643C18.7905 17.0636 18.4787 17.0132 18.128 17.0132H15.7397V22.8909H17.0257V21.1276H18.0027C18.3312 21.1276 18.6374 21.0856 18.9213 21.0016C19.2108 20.9121 19.4613 20.7805 19.6728 20.607C19.89 20.4335 20.0597 20.2179 20.1822 19.9604C20.3047 19.7029 20.3659 19.4035 20.3659 19.062ZM19.0633 19.0872C19.0633 19.3391 18.9742 19.5518 18.796 19.7253C18.6179 19.8933 18.3674 19.9772 18.0445 19.9772H17.0257V18.1803H18.0194C18.3423 18.1803 18.5956 18.2559 18.7793 18.407C18.9686 18.5582 19.0633 18.7793 19.0633 19.0704V19.0872Z" fill="white"/>
<path d="M26.7037 19.952V19.9353C26.7037 19.521 26.6286 19.1376 26.4782 18.7849C26.3279 18.4266 26.1136 18.116 25.8353 17.8529C25.5625 17.5898 25.234 17.3854 24.8499 17.2399C24.4713 17.0888 24.0538 17.0132 23.5973 17.0132H21.3176V22.8909H23.5973C24.0538 22.8909 24.4713 22.8153 24.8499 22.6642C25.234 22.5131 25.5625 22.3059 25.8353 22.0428C26.1136 21.7797 26.3279 21.4691 26.4782 21.1108C26.6286 20.7525 26.7037 20.3663 26.7037 19.952ZM25.3593 19.9688C25.3593 20.2319 25.3147 20.4698 25.2257 20.6826C25.1422 20.8953 25.0225 21.08 24.8666 21.2367C24.7163 21.3935 24.5326 21.5138 24.3155 21.5978C24.0983 21.6818 23.859 21.7238 23.5973 21.7238H22.6036V18.1803H23.5973C23.859 18.1803 24.0983 18.2251 24.3155 18.3147C24.5326 18.3986 24.7163 18.519 24.8666 18.6757C25.0225 18.8325 25.1422 19.02 25.2257 19.2383C25.3147 19.4566 25.3593 19.6945 25.3593 19.952V19.9688Z" fill="white"/>
<path d="M32.3004 18.1887V17.0132H27.8496V22.8909H29.1356V20.6154H31.9247V19.4398H29.1356V18.1887H32.3004Z" fill="white"/>
</svg>
