<svg width="233" height="40" viewBox="0 0 233 40" fill="none" xmlns="http://www.w3.org/2000/svg">
  <path d="M52.689 11.1744H56.4459V28.2537H52.689V11.1109V11.1744ZM60.6765 11.1744H68.4746C70.6214 11.1744 72.2631 11.7458 73.4313 12.8887C73.9226 13.414 74.3043 14.033 74.5537 14.7091C74.8032 15.3852 74.9153 16.1047 74.8835 16.8252V16.8569C74.8835 18.2537 74.5678 19.3966 73.8733 20.2537C73.1919 21.1203 72.2848 21.7797 71.2529 22.1585L75.3887 28.2855H71.0319L67.3696 22.7934H64.465V28.2855H60.7396V11.1109L60.6765 11.1744ZM68.2536 19.4601C69.1691 19.4601 69.8637 19.2696 70.3689 18.8252C70.6145 18.6024 70.8073 18.327 70.9329 18.0193C71.0586 17.7116 71.114 17.3795 71.095 17.0474V17.0156C71.095 16.1902 70.8424 15.5871 70.3373 15.1744C69.8006 14.7617 69.0744 14.5394 68.1589 14.5394H64.4335V19.4601H68.222H68.2536ZM86.5649 28.5712C84.1466 28.5987 81.8132 27.6761 80.0612 25.9998C79.2376 25.1928 78.5882 24.2238 78.1536 23.1533C77.7191 22.0827 77.5087 20.9335 77.5355 19.7775V19.6823C77.5141 17.9297 78.0215 16.2118 78.991 14.7552C79.9605 13.2987 81.3464 12.1719 82.9658 11.5236C84.0708 11.0791 85.2705 10.8252 86.5965 10.8252C89.0082 10.8144 91.3295 11.7481 93.0686 13.4283C93.8922 14.2353 94.5416 15.2043 94.9762 16.2748C95.4107 17.3454 95.6211 18.4946 95.5943 19.6506V19.6823C95.6157 21.4349 95.1083 23.1528 94.1388 24.6094C93.1693 26.0659 91.7834 27.1927 90.164 27.841C89.0239 28.3205 87.8007 28.5687 86.5649 28.5712ZM86.5649 25.0791C87.2538 25.0886 87.9373 24.9554 88.5728 24.6878C89.2083 24.4202 89.7822 24.0239 90.2587 23.5236C91.1931 22.5047 91.7018 21.1633 91.6794 19.7775V19.6823C91.7097 18.2703 91.1883 16.9026 90.2272 15.8728C89.751 15.3697 89.1779 14.9696 88.5428 14.6967C87.9077 14.4237 87.224 14.2838 86.5333 14.2855C85.8477 14.2863 85.1694 14.4275 84.5398 14.7003C83.9102 14.9732 83.3424 15.3721 82.8711 15.8728C81.9176 16.8947 81.3968 18.2495 81.4188 19.6506V19.6823C81.4172 21.0891 81.9347 22.4465 82.8711 23.4918C83.3446 23.968 83.8813 24.349 84.5128 24.6347C85.1442 24.9521 85.8388 25.0791 86.5965 25.0791H86.5649ZM98.9408 11.1744H102.414L110.37 21.7141V11.1744H114.032V28.2537H110.875L102.603 17.3648V28.2537H98.9093V11.1109L98.9408 11.1744Z" fill="white" />
  <path d="M117.915 11.1747H124.292C125.24 11.1747 126.124 11.3017 126.913 11.5557C127.702 11.8096 128.365 12.1588 128.933 12.6033C129.49 13.1066 129.933 13.724 130.233 14.414C130.532 15.104 130.681 15.8505 130.67 16.6033V16.635C130.67 17.5874 130.48 18.381 130.133 19.0795C129.786 19.7779 129.281 20.3493 128.681 20.8255C128.047 21.3052 127.33 21.6606 126.566 21.8731C125.745 22.1271 124.892 22.2223 123.977 22.2223H119.872V28.2541H117.915V11.2064V11.1747ZM124.071 20.508C124.766 20.508 125.397 20.4128 125.966 20.2223C126.504 20.0652 127.007 19.8067 127.45 19.4604C127.853 19.132 128.176 18.7153 128.395 18.2422C128.614 17.7691 128.722 17.252 128.712 16.7303V16.6668C128.712 15.4604 128.334 14.508 127.481 13.9049C126.629 13.3017 125.524 12.9525 124.166 12.9525H119.841V20.508H124.071ZM134.174 11.1747H140.078C141.404 11.1747 142.604 11.3652 143.74 11.8096C144.845 12.2541 145.792 12.8572 146.582 13.6191C147.402 14.3887 148.051 15.3239 148.486 16.3634C148.921 17.4029 149.133 18.5233 149.107 19.6509V19.7144C149.124 20.8674 148.909 22.0119 148.476 23.0795C148.043 24.1135 147.397 25.0438 146.582 25.8096C145.759 26.5907 144.794 27.2051 143.74 27.6191C142.604 28.0636 141.404 28.2541 140.078 28.2541H134.174V11.2064V11.1747ZM140.078 26.4763C141.151 26.4763 142.099 26.3176 142.983 25.9683C143.801 25.6634 144.547 25.1895 145.172 24.5771C145.798 23.9648 146.289 23.2275 146.613 22.4128C146.949 21.5756 147.121 20.6808 147.118 19.7779V19.6826C147.118 18.7303 146.961 17.8731 146.613 17.0477C146.287 16.2263 145.797 15.481 145.172 14.8584C144.548 14.2358 143.802 13.7491 142.983 13.4287C142.055 13.0759 141.069 12.9036 140.078 12.9207H136.069V26.4445H140.078V26.4763ZM153.18 11.1747H165.398V12.9525H155.106V19.0477H164.325V20.7937H155.074V28.2541H153.18V11.1112V11.1747Z" fill="#E01A59" />
  <path d="M174.247 28H175.556V20.367H178.327V19.245H175.539V18.531C175.539 17.29 176.049 16.661 177.069 16.661C177.528 16.661 177.868 16.746 178.344 16.882V15.743C177.919 15.59 177.511 15.522 176.899 15.522C176.1 15.522 175.471 15.743 175.012 16.202C174.502 16.712 174.247 17.46 174.247 18.463V19.228H173.04V20.367H174.247V28ZM183.205 28.204C185.857 28.204 187.812 26.113 187.812 23.614V23.58C187.812 21.098 185.891 19.024 183.239 19.024C180.57 19.024 178.649 21.115 178.649 23.614V23.648C178.649 26.13 180.57 28.204 183.205 28.204ZM183.239 27.031C181.386 27.031 179.992 25.501 179.992 23.614V23.58C179.992 21.727 181.301 20.18 183.205 20.18C185.058 20.18 186.469 21.727 186.469 23.614V23.648C186.469 25.484 185.143 27.031 183.239 27.031ZM189.545 28H190.854V24.498C190.854 21.846 192.418 20.469 194.339 20.469H194.441V19.058C192.775 19.007 191.5 20.044 190.854 21.506V19.211H189.545V28ZM205.918 28.204C208.06 28.204 209.454 27.371 210.678 26.113L209.794 25.246C208.655 26.334 207.584 26.963 205.952 26.963C203.317 26.963 201.345 24.804 201.345 22.05V22.016C201.345 19.279 203.317 17.137 205.952 17.137C207.584 17.137 208.672 17.817 209.692 18.769L210.61 17.783C209.437 16.644 208.128 15.896 205.969 15.896C202.484 15.896 199.951 18.684 199.951 22.05V22.084C199.951 25.501 202.484 28.204 205.918 28.204ZM215.449 26.13H216.724V22.628H220.243V21.404H216.724V17.902H215.449V21.404H211.93V22.628H215.449V26.13ZM225.437 26.13H226.712V22.628H230.231V21.404H226.712V17.902H225.437V21.404H221.918V22.628H225.437V26.13Z" fill="white" />
  <path d="M47.2931 9.11133L45.462 15.9367H29.2344L31.0655 9.11133H47.2931Z" fill="#FDA509" />
  <path d="M18.0272 24.0321L16.2276 30.794H0L1.83113 24.0004L18.0272 24.0321Z" fill="#63C1A0" />
  <path d="M36.2748 15.9365H29.2344L33.4965 0H40.5053L36.2748 15.9365Z" fill="#89D3DF" />
  <path d="M13.8013 40H6.79248L11.023 24.0317H18.0318L13.8013 40Z" fill="#E01A59" />
  <path d="M22.0057 9.11133L20.1746 15.9367H3.97852L5.77808 9.11133H22.0057Z" fill="#FDA509" />
  <path d="M20.1709 15.9365H13.1621L17.4242 0H24.4646L20.1709 15.9365Z" fill="#E01A59" />
  <path d="M29.833 40H22.8242L27.0548 24.0317H34.0952L29.833 40Z" fill="#89D3DF" />
  <path d="M43.3221 24.0315L41.5225 30.7934H25.2949L27.0629 23.9998L43.3221 24.0315Z" fill="#63C1A0" />
  <path d="M32.2701 30.7939H9.22314L15.0007 9.11133H38.0793L32.2701 30.7939Z" fill="#331433" />
  <path d="M20.3659 19.062V19.0452C20.3659 18.7429 20.313 18.4686 20.2073 18.2223C20.1071 17.9704 19.9595 17.7549 19.7647 17.5758C19.5754 17.3966 19.3416 17.2595 19.0633 17.1643C18.7905 17.0636 18.4787 17.0132 18.128 17.0132H15.7397V22.8909H17.0257V21.1276H18.0027C18.3312 21.1276 18.6374 21.0856 18.9213 21.0016C19.2108 20.9121 19.4613 20.7805 19.6728 20.607C19.89 20.4335 20.0597 20.2179 20.1822 19.9604C20.3047 19.7029 20.3659 19.4035 20.3659 19.062ZM19.0633 19.0872C19.0633 19.3391 18.9742 19.5518 18.796 19.7253C18.6179 19.8933 18.3674 19.9772 18.0445 19.9772H17.0257V18.1803H18.0194C18.3423 18.1803 18.5956 18.2559 18.7793 18.407C18.9686 18.5582 19.0633 18.7793 19.0633 19.0704V19.0872Z" fill="white" />
  <path d="M26.7037 19.952V19.9353C26.7037 19.521 26.6286 19.1376 26.4782 18.7849C26.3279 18.4266 26.1136 18.116 25.8353 17.8529C25.5625 17.5898 25.234 17.3854 24.8499 17.2399C24.4713 17.0888 24.0538 17.0132 23.5973 17.0132H21.3176V22.8909H23.5973C24.0538 22.8909 24.4713 22.8153 24.8499 22.6642C25.234 22.5131 25.5625 22.3059 25.8353 22.0428C26.1136 21.7797 26.3279 21.4691 26.4782 21.1108C26.6286 20.7525 26.7037 20.3663 26.7037 19.952ZM25.3593 19.9688C25.3593 20.2319 25.3147 20.4698 25.2257 20.6826C25.1422 20.8953 25.0225 21.08 24.8666 21.2367C24.7163 21.3935 24.5326 21.5138 24.3155 21.5978C24.0983 21.6818 23.859 21.7238 23.5973 21.7238H22.6036V18.1803H23.5973C23.859 18.1803 24.0983 18.2251 24.3155 18.3147C24.5326 18.3986 24.7163 18.519 24.8666 18.6757C25.0225 18.8325 25.1422 19.02 25.2257 19.2383C25.3147 19.4566 25.3593 19.6945 25.3593 19.952V19.9688Z" fill="white" />
  <path d="M32.3004 18.1887V17.0132H27.8496V22.8909H29.1356V20.6154H31.9247V19.4398H29.1356V18.1887H32.3004Z" fill="white" />
</svg>